Coordinates
version=1
nRows=13
nColumns=38
inDegrees=no

Units are S.I. units (second, meters, Newtons, ...)
If the header above contains a line with 'inDegrees', this indicates whether rotational values are in degrees (yes) or radians (no).

endheader
time	pelvis_tilt	pelvis_list	pelvis_rotation	pelvis_tx	pelvis_ty	pelvis_tz	hip_flexion_r	hip_adduction_r	hip_rotation_r	knee_angle_r	ankle_angle_r	subtalar_angle_r	mtp_angle_r	hip_flexion_l	hip_adduction_l	hip_rotation_l	knee_angle_l	ankle_angle_l	subtalar_angle_l	mtp_angle_l	lumbar_extension	lumbar_bending	lumbar_rotation	arm_flex_r	arm_add_r	arm_rot_r	elbow_flex_r	pro_sup_r	wrist_flex_r	wrist_dev_r	arm_flex_l	arm_add_l	arm_rot_l	elbow_flex_l	pro_sup_l	wrist_flex_l	wrist_dev_l
20	1.78518	1.51483	-0.31181	0.746482	-0.524061	0.979008	-0.0325608	0.0825553	-0.201516	0.189853	0.140823	0	0	0.0754198	-0.145037	-0.311032	0.238075	0.096005	0	0	-0.171761	0.108364	0.0601824	0.752206	-0.176904	0.310097	1.10183	1.5708	0	0	0.849817	-0.123245	0.167597	0.827194	0.825095	0	0
20.01	1.81135	1.51465	-0.337669	0.745292	-0.522936	0.979046	-0.0344663	0.0805217	-0.203611	0.191685	0.142309	0	0	0.0747728	-0.146574	-0.314877	0.236644	0.0939723	0	0	-0.171575	0.106369	0.0605195	0.745885	-0.178921	0.303363	1.10692	1.5708	0	0	0.844493	-0.118334	0.161389	0.833732	0.825884	0	0
20.02	1.90541	1.51309	-0.43041	0.74424	-0.521875	0.979166	-0.0419596	0.078782	-0.205593	0.191155	0.144026	0	0	0.0694104	-0.147884	-0.317661	0.233793	0.0910188	0	0	-0.174556	0.0997731	0.0686392	0.731864	-0.187577	0.283662	1.12045	1.5708	0	0	0.857933	-0.152743	0.498718	0.76217	1.5708	0	0
20.03	1.84303	1.51353	-0.368623	0.742815	-0.520558	0.97905	-0.0392429	0.0778814	-0.204399	0.191758	0.144081	0	0	0.0727217	-0.150016	-0.320745	0.229606	0.0865326	0	0	-0.170667	0.102429	0.0626881	0.730132	-0.184623	0.285253	1.12189	1.5708	0	0	0.832569	-0.105813	0.147892	0.849392	0.884765	0	0
20.04	1.92295	1.51199	-0.447199	0.74164	-0.519421	0.979112	-0.0460301	0.0760858	-0.206496	0.191293	0.146102	0	0	0.0677242	-0.151599	-0.324457	0.226176	0.0835358	0	0	-0.172581	0.0957749	0.0709063	0.716196	-0.194041	0.266917	1.13433	1.5708	0	0	0.847604	-0.141955	0.486987	0.771437	1.5708	0	0
20.05	1.92523	1.51146	-0.449194	0.740207	-0.518159	0.979063	-0.0475195	0.0746957	-0.207104	0.191686	0.147143	0	0	0.0672236	-0.153828	-0.328901	0.222893	0.0808015	0	0	-0.170912	0.0937633	0.0719411	0.709104	-0.198092	0.260668	1.13988	1.5708	0	0	0.841843	-0.134568	0.475368	0.774449	1.5708	0	0
20.06	1.92625	1.5107	-0.450034	0.738788	-0.516887	0.978985	-0.0490339	0.0735616	-0.207709	0.192111	0.148113	0	0	0.0662782	-0.156156	-0.33239	0.219138	0.0786552	0	0	-0.169332	0.0914633	0.0735461	0.701568	-0.202698	0.253729	1.1464	1.5708	0	0	0.837009	-0.127914	0.468353	0.77799	1.5708	0	0
20.07	1.923	1.50997	-0.44651	0.737336	-0.515557	0.978858	-0.0503947	0.0725599	-0.208215	0.192502	0.149122	0	0	0.0651162	-0.158295	-0.334841	0.214693	0.0774479	0	0	-0.167417	0.0890029	0.0749721	0.694004	-0.207745	0.247288	1.15333	1.5708	0	0	0.832068	-0.121596	0.462052	0.782232	1.5708	0	0
20.08	1.92367	1.5093	-0.446682	0.735787	-0.514151	0.97872	-0.0520455	0.0713495	-0.208635	0.192871	0.150127	0	0	0.0633324	-0.160044	-0.33707	0.209723	0.0770955	0	0	-0.165541	0.0861686	0.0761252	0.686535	-0.213371	0.241638	1.16058	1.5708	0	0	0.826917	-0.115367	0.455704	0.786818	1.5708	0	0
20.09	1.92504	1.50842	-0.447513	0.734152	-0.512713	0.978588	-0.0539442	0.0702903	-0.208926	0.193083	0.151067	0	0	0.0612091	-0.161862	-0.339263	0.204628	0.0770338	0	0	-0.163825	0.0833063	0.0774518	0.679091	-0.219594	0.236188	1.16796	1.5708	0	0	0.822016	-0.108766	0.449626	0.790784	1.5708	0	0
20.1	1.92327	1.50746	-0.445242	0.732475	-0.511229	0.978446	-0.0558954	0.0694844	-0.2088	0.19284	0.151679	0	0	0.0589734	-0.16374	-0.341376	0.199581	0.0770115	0	0	-0.161951	0.0803362	0.0789459	0.671586	-0.22639	0.231131	1.17519	1.5708	0	0	0.817525	-0.101604	0.443787	0.793879	1.5708	0	0
20.11	1.92215	1.50625	-0.443453	0.730701	-0.509699	0.978301	-0.0582771	0.0688573	-0.208516	0.192022	0.151918	0	0	0.0561886	-0.165414	-0.34261	0.193856	0.0760812	0	0	-0.160225	0.0772716	0.0804496	0.663854	-0.23383	0.226281	1.18263	1.5708	0	0	0.814073	-0.0934696	0.438977	0.795827	1.5708	0	0
20.12	1.91651	1.50501	-0.436986	0.728829	-0.508136	0.978113	-0.0602654	0.0681997	-0.208915	0.191538	0.152199	0	0	0.0535371	-0.167053	-0.343752	0.188056	0.0745988	0	0	-0.158077	0.0741344	0.0816087	0.656315	-0.24125	0.221631	1.18915	1.5708	0	0	0.811252	-0.0855014	0.436326	0.7973	1.5708	0	0
